<svg width="30" height="30" viewBox="0 0 30 30" fill="none" xmlns="http://www.w3.org/2000/svg">
<path fill-rule="evenodd" clip-rule="evenodd" d="M16.75 6C16.75 6.83934 16.233 7.55793 15.5 7.85462V11H17.75V12.25H22.75C24.2688 12.25 25.5 13.4812 25.5 15V23C25.5 24.5188 24.2688 25.75 22.75 25.75H6.75C5.23122 25.75 4 24.5188 4 23V15C4 13.4812 5.23122 12.25 6.75 12.25H11.75V11H14V7.85462C13.267 7.55793 12.75 6.83934 12.75 6C12.75 4.89543 13.6454 4 14.75 4C15.8546 4 16.75 4.89543 16.75 6ZM5.5 15C5.5 14.3096 6.05964 13.75 6.75 13.75H22.75C23.4404 13.75 24 14.3096 24 15V23C24 23.6904 23.4404 24.25 22.75 24.25H6.75C6.05964 24.25 5.5 23.6904 5.5 23V15ZM11.75 18.5C11.75 19.3284 11.0784 20 10.25 20C9.42157 20 8.75 19.3284 8.75 18.5C8.75 17.6716 9.42157 17 10.25 17C11.0784 17 11.75 17.6716 11.75 18.5ZM19.25 20C20.0784 20 20.75 19.3284 20.75 18.5C20.75 17.6716 20.0784 17 19.25 17C18.4216 17 17.75 17.6716 17.75 18.5C17.75 19.3284 18.4216 20 19.25 20Z" fill="white"/>
</svg>
