<svg xmlns="http://www.w3.org/2000/svg" xmlns:xlink="http://www.w3.org/1999/xlink" version="1.1" width="1000" height="1000" viewBox="0 0 1000 1000" xml:space="preserve">
<desc>Created with Fabric.js 3.5.0</desc>
<defs>
</defs>
<rect x="0" y="0" width="100%" height="100%" fill="rgba(255,255,255,0)"/>
<g transform="matrix(0.9943 0 0 0.9943 497.15 497.15)" id="568722">
<g style="" vector-effect="non-scaling-stroke">
		<g transform="matrix(1 0 0 1 -450 -450)">
<rect style="stroke: none; stroke-width: 1; stroke-dasharray: none; stroke-linecap: butt; stroke-dashoffset: 0; stroke-linejoin: miter; stroke-miterlimit: 4; is-custom-font: none; font-file-url: none; fill: rgb(255,0,0); fill-opacity: 0; fill-rule: nonzero; opacity: 1;" x="-50" y="-50" rx="0" ry="0" width="100" height="100"/>
</g>
		<g transform="matrix(47.6797 0 0 47.6797 -0.5019 -0.5006)" id="515118">
<path style="stroke: none; stroke-width: 0; stroke-dasharray: none; stroke-linecap: butt; stroke-dashoffset: 0; stroke-linejoin: miter; stroke-miterlimit: 4; is-custom-font: none; font-file-url: none; fill: rgb(188,188,188); fill-rule: evenodd; opacity: 1;" vector-effect="non-scaling-stroke" transform=" translate(-11.3667, -11)" d="M 18.6925 10.1851 C 18.7228 10.4386 18.7365 10.7087 18.7365 11.0022 H 18.7336 C 18.7336 11.2956 18.7202 11.5654 18.69 11.8189 L 20.1749 13.0926 C 20.5079 13.3354 20.6154 13.7736 20.4699 14.1047 C 20.0958 15.236 19.4564 16.3236 18.6458 17.2374 C 18.3822 17.5497 17.9689 17.6596 17.6254 17.5121 L 15.7318 16.8646 C 15.2932 17.1862 14.8197 17.4583 14.32 17.676 L 13.9425 19.596 C 13.8858 19.9873 13.5638 20.3057 13.1908 20.3584 C 12.5571 20.4745 11.9607 20.5333 11.3655 20.5333 C 10.7698 20.5333 10.1745 20.4734 9.5646 20.3612 C 9.1678 20.3052 8.84582 19.9867 8.79366 19.6234 L 8.41066 17.6759 C 7.90153 17.4561 7.42142 17.1818 6.99609 16.8656 L 5.14646 17.4964 C 4.78008 17.6562 4.3509 17.5544 4.09776 17.2475 C 3.2758 16.3219 2.63808 15.2354 2.28096 14.1501 C 2.1183 13.774 2.22572 13.3331 2.56033 13.0905 L 4.04316 11.8181 C 4.01279 11.5649 3.99912 11.2951 3.99912 11.0016 C 3.99912 10.7083 4.01277 10.4388 4.04327 10.1857 L 2.55894 8.91212 C 2.22551 8.66936 2.11789 8.23038 2.26338 7.90025 C 2.63751 6.76779 3.27637 5.68186 4.08699 4.76804 C 4.35058 4.45521 4.76382 4.34533 5.10734 4.49334 L 6.99631 5.1387 C 7.42202 4.82246 7.90314 4.54829 8.41264 4.32933 L 8.79083 2.41062 C 8.84752 2.01874 9.17063 1.70031 9.53342 1.64985 C 10.733 1.40752 11.9695 1.40561 13.1699 1.64425 C 13.565 1.70031 13.8881 2.01874 13.9397 2.38091 L 14.3222 4.32874 C 14.8223 4.54623 15.2961 4.81866 15.7346 5.14087 L 17.5897 4.50735 C 17.9562 4.34768 18.3854 4.44978 18.6384 4.75683 C 19.4592 5.68186 20.0975 6.76835 20.4541 7.85315 C 20.6154 8.22605 20.5111 8.66266 20.1831 8.90658 L 18.6925 10.1851 Z M 17.7151 12.4643 L 17.4697 12.2535 L 17.4714 12.2524 L 17.5309 11.9362 C 17.5819 11.6665 17.6046 11.3599 17.6046 11.0011 C 17.6046 10.6423 17.5819 10.335 17.5309 10.0659 L 17.4714 9.7503 L 17.7168 9.53951 L 19.3575 8.13225 C 19.3695 8.16646 19.3812 8.2007 19.3926 8.23499 C 19.3937 8.23992 19.3952 8.24441 19.397 8.24839 L 19.3926 8.23499 C 19.3815 8.18549 19.4085 8.09177 19.486 8.02461 L 19.516 8.00172 C 19.5053 8.00888 19.4953 8.01656 19.486 8.02461 L 19.4594 8.04488 L 19.3575 8.13225 C 19.0424 7.23189 18.5314 6.36026 17.8752 5.59461 L 17.9878 5.55606 C 17.9922 5.55492 17.9964 5.5535 18.0002 5.55179 L 17.9878 5.55606 C 17.9326 5.57016 17.8323 5.54161 17.7839 5.48985 C 17.8146 5.52454 17.8451 5.55947 17.8752 5.59461 L 15.8178 6.2991 L 15.5202 6.4017 L 15.2765 6.20548 C 14.7708 5.80183 14.2119 5.48003 13.6224 5.2541 L 13.3299 5.1431 L 13.2698 4.83868 L 12.8553 2.7239 C 12.8901 2.73033 12.9248 2.73699 12.9594 2.74388 C 12.9655 2.74557 12.9717 2.7468 12.9778 2.74755 L 12.9594 2.74388 C 12.9032 2.72824 12.8498 2.67319 12.8302 2.59559 L 12.8248 2.56815 C 12.8261 2.57757 12.8279 2.58673 12.8302 2.59559 L 12.8553 2.7239 C 11.8849 2.5443 10.8833 2.54262 9.88559 2.72312 L 9.9076 2.61105 C 9.90885 2.60612 9.90983 2.60116 9.91052 2.59618 L 9.9076 2.61105 C 9.89245 2.67096 9.83731 2.72644 9.75835 2.74713 L 9.72799 2.75316 C 9.73846 2.75172 9.74859 2.74969 9.75835 2.74713 C 9.80076 2.7388 9.84317 2.7308 9.88559 2.72312 L 9.47007 4.83868 L 9.40998 5.14254 L 9.11748 5.25466 C 8.50527 5.489 7.93443 5.81528 7.47187 6.19931 L 7.22585 6.40394 L 6.92201 6.30022 L 4.86519 5.59413 C 4.89191 5.56315 4.91887 5.53237 4.94608 5.50177 C 4.94763 5.50015 4.94909 5.49851 4.95046 5.49685 C 4.949 5.49849 4.94754 5.50013 4.94608 5.50177 C 4.90703 5.54253 4.81107 5.56925 4.72847 5.54719 L 4.70104 5.53778 C 4.70994 5.54157 4.71912 5.5447 4.72847 5.54719 L 4.86519 5.59413 C 4.2182 6.34425 3.71504 7.20471 3.38031 8.13317 L 3.27934 8.04657 L 3.25109 8.02506 C 3.24227 8.01743 3.23279 8.01019 3.22265 8.0034 L 3.25109 8.02506 C 3.32703 8.09071 3.35427 8.18495 3.33397 8.26529 L 3.32356 8.29604 C 3.32784 8.2861 3.33131 8.27581 3.33397 8.26529 C 3.34904 8.2211 3.36449 8.17706 3.38031 8.13317 L 5.02188 9.54119 L 5.26733 9.75254 L 5.20725 10.0687 C 5.15623 10.3384 5.13355 10.6445 5.13355 11.0033 C 5.12909 11.3164 5.15375 11.6292 5.20725 11.9379 L 5.26733 12.254 L 5.02188 12.4648 L 3.38102 13.8723 C 3.36913 13.8382 3.35752 13.8042 3.34619 13.7701 C 3.34509 13.7651 3.34358 13.7605 3.34169 13.7565 L 3.34619 13.7701 C 3.35698 13.819 3.32998 13.9118 3.25425 13.9788 L 3.22265 14.0032 C 3.234 13.9956 3.24453 13.9874 3.25425 13.9788 L 3.27934 13.9595 L 3.38102 13.8723 C 3.69563 14.7723 4.20664 15.6445 4.86298 16.4103 L 4.75138 16.4485 C 4.74653 16.4497 4.74201 16.4513 4.73788 16.4531 L 4.75138 16.4485 C 4.80652 16.4347 4.90419 16.4624 4.95249 16.5131 L 4.95896 16.5204 C 4.95692 16.5179 4.95476 16.5155 4.95249 16.5131 C 4.92236 16.4791 4.89252 16.4448 4.86298 16.4103 L 6.92145 15.7064 L 7.22528 15.6021 L 7.4713 15.8067 C 7.93387 16.1913 8.50413 16.5165 9.11635 16.7519 L 9.40828 16.8641 L 9.46837 17.1668 L 9.88294 19.2794 C 9.84317 19.2726 9.80321 19.2655 9.76303 19.2582 L 9.75797 19.2571 L 9.74953 19.2557 L 9.76303 19.2582 C 9.83021 19.2734 9.88872 19.3306 9.90909 19.4127 L 9.91392 19.4373 C 9.91269 19.4289 9.91107 19.4207 9.90909 19.4127 L 9.88294 19.2794 C 10.401 19.3684 10.8864 19.4127 11.3679 19.4127 C 11.8658 19.4097 12.3625 19.3656 12.8529 19.2809 L 12.8306 19.3941 C 12.8293 19.3991 12.8283 19.4042 12.8276 19.4093 L 12.8306 19.3941 C 12.846 19.3334 12.9017 19.2774 12.983 19.2575 L 13.0101 19.2523 C 13.0008 19.2536 12.9918 19.2553 12.983 19.2575 C 12.9397 19.2656 12.8963 19.2734 12.8529 19.2809 L 13.2686 17.1668 L 13.3282 16.8629 L 13.6195 16.7508 C 14.2091 16.5249 14.7686 16.2031 15.2748 15.7994 L 15.5185 15.6043 L 15.815 15.7052 L 17.8724 16.4112 C 17.8453 16.4426 17.8179 16.4739 17.7903 16.505 C 17.789 16.5064 17.7877 16.5078 17.7865 16.5092 C 17.7878 16.5078 17.7891 16.5064 17.7903 16.505 C 17.83 16.4631 17.9266 16.4358 18.0106 16.4586 L 18.0371 16.4677 C 18.0285 16.4641 18.0196 16.461 18.0106 16.4586 L 17.8724 16.4112 C 18.5194 15.6611 19.0222 14.8005 19.3562 13.8719 L 19.4577 13.9589 L 19.4732 13.9707 C 19.4855 13.9824 19.4993 13.9929 19.5143 14.0021 L 19.4732 13.9707 C 19.4072 13.9084 19.3807 13.8137 19.4073 13.7253 L 19.4123 13.7105 L 19.4101 13.7167 L 19.4073 13.7253 C 19.3908 13.7744 19.3737 13.8232 19.3562 13.8719 L 17.7151 12.4643 Z M 8.53359 11.0033 C 8.53359 9.45598 9.7994 8.20019 11.3679 8.20019 C 12.9234 8.20019 14.2022 9.46439 14.2022 11.0033 C 14.2022 12.5514 12.9333 13.8064 11.3679 13.8064 C 9.79203 13.8064 8.53359 12.5618 8.53359 11.0033 Z M 11.3673 7.07894 C 13.5497 7.07894 15.3353 8.8449 15.3353 11.0033 C 15.3353 13.1707 13.5588 14.9277 11.3673 14.9277 C 9.165 14.9277 7.39922 13.1808 7.39922 11.0033 C 7.39922 8.83817 9.1718 7.07894 11.3673 7.07894 Z" stroke-linecap="round"/>
</g>
</g>
</g>
<g transform="matrix(1 0 0 1 500 500)" id="537560">
<g style="" vector-effect="non-scaling-stroke">
		<g transform="matrix(1 0 0 1 -450 -450)">
<rect style="stroke: none; stroke-width: 1; stroke-dasharray: none; stroke-linecap: butt; stroke-dashoffset: 0; stroke-linejoin: miter; stroke-miterlimit: 4; is-custom-font: none; font-file-url: none; fill: rgb(255,255,255); fill-opacity: 0; fill-rule: nonzero; opacity: 1;" x="-50" y="-50" rx="0" ry="0" width="100" height="100"/>
</g>
		<g transform="matrix(47.6797 0 0 47.6797 -0.0019 -0.0006)" id="515118">
<path style="stroke: none; stroke-width: 1; stroke-dasharray: none; stroke-linecap: butt; stroke-dashoffset: 0; stroke-linejoin: miter; stroke-miterlimit: 4; is-custom-font: none; font-file-url: none; fill: rgb(168,178,185); fill-rule: evenodd; opacity: 1;" vector-effect="non-scaling-stroke" transform=" translate(-11.3667, -11)" d="M 18.6925 10.1851 C 18.7228 10.4386 18.7365 10.7087 18.7365 11.0022 H 18.7336 C 18.7336 11.2956 18.7202 11.5654 18.69 11.8189 L 20.1749 13.0926 C 20.5079 13.3354 20.6154 13.7736 20.4699 14.1047 C 20.0958 15.236 19.4564 16.3236 18.6458 17.2374 C 18.3822 17.5497 17.9689 17.6596 17.6254 17.5121 L 15.7318 16.8646 C 15.2932 17.1862 14.8197 17.4583 14.32 17.676 L 13.9425 19.596 C 13.8858 19.9873 13.5638 20.3057 13.1908 20.3584 C 12.5571 20.4745 11.9607 20.5333 11.3655 20.5333 C 10.7698 20.5333 10.1745 20.4734 9.5646 20.3612 C 9.1678 20.3052 8.84582 19.9867 8.79366 19.6234 L 8.41066 17.6759 C 7.90153 17.4561 7.42142 17.1818 6.99609 16.8656 L 5.14646 17.4964 C 4.78008 17.6562 4.3509 17.5544 4.09776 17.2475 C 3.2758 16.3219 2.63808 15.2354 2.28096 14.1501 C 2.1183 13.774 2.22572 13.3331 2.56033 13.0905 L 4.04316 11.8181 C 4.01279 11.5649 3.99912 11.2951 3.99912 11.0016 C 3.99912 10.7083 4.01277 10.4388 4.04327 10.1857 L 2.55894 8.91212 C 2.22551 8.66936 2.11789 8.23038 2.26338 7.90025 C 2.63751 6.76779 3.27637 5.68186 4.08699 4.76804 C 4.35058 4.45521 4.76382 4.34533 5.10734 4.49334 L 6.99631 5.1387 C 7.42202 4.82246 7.90314 4.54829 8.41264 4.32933 L 8.79083 2.41062 C 8.84752 2.01874 9.17063 1.70031 9.53342 1.64985 C 10.733 1.40752 11.9695 1.40561 13.1699 1.64425 C 13.565 1.70031 13.8881 2.01874 13.9397 2.38091 L 14.3222 4.32874 C 14.8223 4.54623 15.2961 4.81866 15.7346 5.14087 L 17.5897 4.50735 C 17.9562 4.34768 18.3854 4.44978 18.6384 4.75683 C 19.4592 5.68186 20.0975 6.76835 20.4541 7.85315 C 20.6154 8.22605 20.5111 8.66266 20.1831 8.90658 L 18.6925 10.1851 Z M 17.7151 12.4643 L 17.4697 12.2535 L 17.4714 12.2524 L 17.5309 11.9362 C 17.5819 11.6665 17.6046 11.3599 17.6046 11.0011 C 17.6046 10.6423 17.5819 10.335 17.5309 10.0659 L 17.4714 9.7503 L 17.7168 9.53951 L 19.3575 8.13225 C 19.3695 8.16646 19.3812 8.2007 19.3926 8.23499 C 19.3937 8.23992 19.3952 8.24441 19.397 8.24839 L 19.3926 8.23499 C 19.3815 8.18549 19.4085 8.09177 19.486 8.02461 L 19.516 8.00172 C 19.5053 8.00888 19.4953 8.01656 19.486 8.02461 L 19.4594 8.04488 L 19.3575 8.13225 C 19.0424 7.23189 18.5314 6.36026 17.8752 5.59461 L 17.9878 5.55606 C 17.9922 5.55492 17.9964 5.5535 18.0002 5.55179 L 17.9878 5.55606 C 17.9326 5.57016 17.8323 5.54161 17.7839 5.48985 C 17.8146 5.52454 17.8451 5.55947 17.8752 5.59461 L 15.8178 6.2991 L 15.5202 6.4017 L 15.2765 6.20548 C 14.7708 5.80183 14.2119 5.48003 13.6224 5.2541 L 13.3299 5.1431 L 13.2698 4.83868 L 12.8553 2.7239 C 12.8901 2.73033 12.9248 2.73699 12.9594 2.74388 C 12.9655 2.74557 12.9717 2.7468 12.9778 2.74755 L 12.9594 2.74388 C 12.9032 2.72824 12.8498 2.67319 12.8302 2.59559 L 12.8248 2.56815 C 12.8261 2.57757 12.8279 2.58673 12.8302 2.59559 L 12.8553 2.7239 C 11.8849 2.5443 10.8833 2.54262 9.88559 2.72312 L 9.9076 2.61105 C 9.90885 2.60612 9.90983 2.60116 9.91052 2.59618 L 9.9076 2.61105 C 9.89245 2.67096 9.83731 2.72644 9.75835 2.74713 L 9.72799 2.75316 C 9.73846 2.75172 9.74859 2.74969 9.75835 2.74713 C 9.80076 2.7388 9.84317 2.7308 9.88559 2.72312 L 9.47007 4.83868 L 9.40998 5.14254 L 9.11748 5.25466 C 8.50527 5.489 7.93443 5.81528 7.47187 6.19931 L 7.22585 6.40394 L 6.92201 6.30022 L 4.86519 5.59413 C 4.89191 5.56315 4.91887 5.53237 4.94608 5.50177 C 4.94763 5.50015 4.94909 5.49851 4.95046 5.49685 C 4.949 5.49849 4.94754 5.50013 4.94608 5.50177 C 4.90703 5.54253 4.81107 5.56925 4.72847 5.54719 L 4.70104 5.53778 C 4.70994 5.54157 4.71912 5.5447 4.72847 5.54719 L 4.86519 5.59413 C 4.2182 6.34425 3.71504 7.20471 3.38031 8.13317 L 3.27934 8.04657 L 3.25109 8.02506 C 3.24227 8.01743 3.23279 8.01019 3.22265 8.0034 L 3.25109 8.02506 C 3.32703 8.09071 3.35427 8.18495 3.33397 8.26529 L 3.32356 8.29604 C 3.32784 8.2861 3.33131 8.27581 3.33397 8.26529 C 3.34904 8.2211 3.36449 8.17706 3.38031 8.13317 L 5.02188 9.54119 L 5.26733 9.75254 L 5.20725 10.0687 C 5.15623 10.3384 5.13355 10.6445 5.13355 11.0033 C 5.12909 11.3164 5.15375 11.6292 5.20725 11.9379 L 5.26733 12.254 L 5.02188 12.4648 L 3.38102 13.8723 C 3.36913 13.8382 3.35752 13.8042 3.34619 13.7701 C 3.34509 13.7651 3.34358 13.7605 3.34169 13.7565 L 3.34619 13.7701 C 3.35698 13.819 3.32998 13.9118 3.25425 13.9788 L 3.22265 14.0032 C 3.234 13.9956 3.24453 13.9874 3.25425 13.9788 L 3.27934 13.9595 L 3.38102 13.8723 C 3.69563 14.7723 4.20664 15.6445 4.86298 16.4103 L 4.75138 16.4485 C 4.74653 16.4497 4.74201 16.4513 4.73788 16.4531 L 4.75138 16.4485 C 4.80652 16.4347 4.90419 16.4624 4.95249 16.5131 L 4.95896 16.5204 C 4.95692 16.5179 4.95476 16.5155 4.95249 16.5131 C 4.92236 16.4791 4.89252 16.4448 4.86298 16.4103 L 6.92145 15.7064 L 7.22528 15.6021 L 7.4713 15.8067 C 7.93387 16.1913 8.50413 16.5165 9.11635 16.7519 L 9.40828 16.8641 L 9.46837 17.1668 L 9.88294 19.2794 C 9.84317 19.2726 9.80321 19.2655 9.76303 19.2582 L 9.75797 19.2571 L 9.74953 19.2557 L 9.76303 19.2582 C 9.83021 19.2734 9.88872 19.3306 9.90909 19.4127 L 9.91392 19.4373 C 9.91269 19.4289 9.91107 19.4207 9.90909 19.4127 L 9.88294 19.2794 C 10.401 19.3684 10.8864 19.4127 11.3679 19.4127 C 11.8658 19.4097 12.3625 19.3656 12.8529 19.2809 L 12.8306 19.3941 C 12.8293 19.3991 12.8283 19.4042 12.8276 19.4093 L 12.8306 19.3941 C 12.846 19.3334 12.9017 19.2774 12.983 19.2575 L 13.0101 19.2523 C 13.0008 19.2536 12.9918 19.2553 12.983 19.2575 C 12.9397 19.2656 12.8963 19.2734 12.8529 19.2809 L 13.2686 17.1668 L 13.3282 16.8629 L 13.6195 16.7508 C 14.2091 16.5249 14.7686 16.2031 15.2748 15.7994 L 15.5185 15.6043 L 15.815 15.7052 L 17.8724 16.4112 C 17.8453 16.4426 17.8179 16.4739 17.7903 16.505 C 17.789 16.5064 17.7877 16.5078 17.7865 16.5092 C 17.7878 16.5078 17.7891 16.5064 17.7903 16.505 C 17.83 16.4631 17.9266 16.4358 18.0106 16.4586 L 18.0371 16.4677 C 18.0285 16.4641 18.0196 16.461 18.0106 16.4586 L 17.8724 16.4112 C 18.5194 15.6611 19.0222 14.8005 19.3562 13.8719 L 19.4577 13.9589 L 19.4732 13.9707 C 19.4855 13.9824 19.4993 13.9929 19.5143 14.0021 L 19.4732 13.9707 C 19.4072 13.9084 19.3807 13.8137 19.4073 13.7253 L 19.4123 13.7105 L 19.4101 13.7167 L 19.4073 13.7253 C 19.3908 13.7744 19.3737 13.8232 19.3562 13.8719 L 17.7151 12.4643 Z M 8.53359 11.0033 C 8.53359 9.45598 9.7994 8.20019 11.3679 8.20019 C 12.9234 8.20019 14.2022 9.46439 14.2022 11.0033 C 14.2022 12.5514 12.9333 13.8064 11.3679 13.8064 C 9.79203 13.8064 8.53359 12.5618 8.53359 11.0033 Z M 11.3673 7.07894 C 13.5497 7.07894 15.3353 8.8449 15.3353 11.0033 C 15.3353 13.1707 13.5588 14.9277 11.3673 14.9277 C 9.165 14.9277 7.39922 13.1808 7.39922 11.0033 C 7.39922 8.83817 9.1718 7.07894 11.3673 7.07894 Z" stroke-linecap="round"/>
</g>
</g>
</g>
</svg>